<svg width="100" height="100" viewBox="0 0 100 100" fill="none" xmlns="http://www.w3.org/2000/svg">
<path d="M100 50C100 77.6142 77.6142 100 50 100C22.3858 100 0 77.6142 0 50C0 22.3858 22.3858 0 50 0C77.6142 0 100 22.3858 100 50Z" fill="black"/>
<path d="M29.8214 48.06V47.08C29.8214 43.4867 30.5447 40.4067 31.9914 37.84C33.4381 35.2733 35.3981 33.29 37.8714 31.89C40.3447 30.49 43.0514 29.79 45.9914 29.79C49.5847 29.79 52.3381 30.49 54.2514 31.89C56.2114 33.2433 57.6581 34.76 58.5914 36.44H59.5714V30.77H64.8214V72.98C64.8214 74.8467 64.3081 76.3167 63.2814 77.39C62.2547 78.4633 60.7614 79 58.8014 79H35.5614V74.1H57.3314C58.7314 74.1 59.4314 73.4 59.4314 72V58.98H58.4514C57.8914 60.0067 57.0981 61.01 56.0714 61.99C55.0447 62.97 53.7147 63.7867 52.0814 64.44C50.4481 65.0467 48.4181 65.35 45.9914 65.35C43.0514 65.35 40.3447 64.65 37.8714 63.25C35.3981 61.85 33.4381 59.8667 31.9914 57.3C30.5447 54.6867 29.8214 51.6067 29.8214 48.06ZM47.4614 60.45C51.0081 60.45 53.8781 59.33 56.0714 57.09C58.3114 54.85 59.4314 51.77 59.4314 47.85V47.29C59.4314 43.3233 58.3114 40.2433 56.0714 38.05C53.8781 35.81 51.0081 34.69 47.4614 34.69C43.9614 34.69 41.0681 35.81 38.7814 38.05C36.5414 40.2433 35.4214 43.3233 35.4214 47.29V47.85C35.4214 51.77 36.5414 54.85 38.7814 57.09C41.0681 59.33 43.9614 60.45 47.4614 60.45Z" fill="white"/>
<path d="M79.4235 65.98C78.0702 65.98 76.9268 65.5367 75.9935 64.65C75.1068 63.7633 74.6635 62.62 74.6635 61.22C74.6635 59.82 75.1068 58.6767 75.9935 57.79C76.9268 56.9033 78.0702 56.46 79.4235 56.46C80.8235 56.46 81.9668 56.9033 82.8535 57.79C83.7402 58.6767 84.1835 59.82 84.1835 61.22C84.1835 62.62 83.7402 63.7633 82.8535 64.65C81.9668 65.5367 80.8235 65.98 79.4235 65.98Z" fill="white"/>
</svg>
